<?xml version="1.0" encoding="UTF-8"?><svg xmlns="http://www.w3.org/2000/svg" xmlns:xlink="http://www.w3.org/1999/xlink" version="1.1" x="0px" y="0px" viewBox="0 0 32 32" xml:space="preserve"><g id="style_1_copy_6"><path d="M24.688 30H0L7 2h25z"/><g fill="#FFF"><path d="M16 15.586l9.195-4.846c-.126-.502-.561-.885-1.101-.885H7.906c-.54 0-.976.383-1.101.885L16 15.586z"/><path d="M15.936 16.513l-2.303-1.214-4.874 6.846h14.468l-4.873-6.839L16 16.547z"/><path d="M19.113 14.907l5.134 7.207a1.145 1.145 0 0 0 1.003-1.125v-9.317l-6.137 3.235z"/><path d="M7.74 22.111l5.135-7.211-6.125-3.228v9.316c0 .578.435 1.039.99 1.123z"/></g></g><metadata><rdf:RDF xmlns:rdf="http://www.w3.org/1999/02/22-rdf-syntax-ns#" xmlns:rdfs="http://www.w3.org/2000/01/rdf-schema#" xmlns:dc="http://purl.org/dc/elements/1.1/"><rdf:Description about="https://iconscout.com/legal#licenses" dc:title="social,media,online,email" dc:description="social,media,online,email" dc:publisher="Iconscout" dc:date="2017-09-15" dc:format="image/svg+xml" dc:language="en"><dc:creator><rdf:Bag><rdf:li>Epicflaticon by Alfredo</rdf:li></rdf:Bag></dc:creator></rdf:Description></rdf:RDF></metadata></svg>