<?xml version="1.0" encoding="UTF-8"?><svg xmlns="http://www.w3.org/2000/svg" xmlns:xlink="http://www.w3.org/1999/xlink" version="1.1" x="0px" y="0px" viewBox="0 0 32 32" xml:space="preserve"><g id="style_1_copy_6"><path d="M24.688 30H0L7 2h25z"/><path id="Cat_3_" fill="#FFF" d="M18.944 26.128H13.743s.007-1.544 0-2.602c-3.56.766-4.553-1.951-4.553-1.951-.65-1.301-1.301-1.951-1.301-1.951-1.301-.773 0-.65 0-.65 1.301 0 1.951 1.301 1.951 1.301 1.142 1.938 3.173 1.626 3.903 1.301 0-.65.285-1.634.65-1.951-2.841-.32-5.207-1.951-5.207-5.204s.653-3.903 1.304-4.553c-.131-.321-.676-1.506.02-3.252 0 0 1.278 0 2.579 1.951.645-.645 2.602-.65 3.253-.65.649 0 2.607.006 3.251.65 1.301-1.951 2.582-1.951 2.582-1.951.695 1.747.152 2.932.02 3.252.65.65 1.301 1.301 1.301 4.553s-2.362 4.884-5.204 5.204c.366.317.65 1.437.65 1.951l.002 4.552z"/></g><metadata><rdf:RDF xmlns:rdf="http://www.w3.org/1999/02/22-rdf-syntax-ns#" xmlns:rdfs="http://www.w3.org/2000/01/rdf-schema#" xmlns:dc="http://purl.org/dc/elements/1.1/"><rdf:Description about="https://iconscout.com/legal#licenses" dc:title="social,media,online,github" dc:description="social,media,online,github" dc:publisher="Iconscout" dc:date="2017-09-15" dc:format="image/svg+xml" dc:language="en"><dc:creator><rdf:Bag><rdf:li>Epicflaticon by Alfredo</rdf:li></rdf:Bag></dc:creator></rdf:Description></rdf:RDF></metadata></svg>