<?xml version="1.0" encoding="UTF-8"?><svg xmlns="http://www.w3.org/2000/svg" xmlns:xlink="http://www.w3.org/1999/xlink" version="1.1" x="0px" y="0px" viewBox="0 0 32 32" xml:space="preserve"><g id="Outline_Color_copy_2"><path d="M28 1c1.654 0 3 1.346 3 3v24c0 1.654-1.346 3-3 3H4c-1.654 0-3-1.346-3-3V4c0-1.654 1.346-3 3-3h24m0-1H4C1.8 0 0 1.8 0 4v24c0 2.2 1.8 4 4 4h24c2.2 0 4-1.8 4-4V4c0-2.2-1.8-4-4-4z"/><path d="M22.869 6.841H9.131c-1.293 0-2.29.997-2.29 2.29v13.738c0 1.293.997 2.29 2.29 2.29h13.738c1.293 0 2.29-.997 2.29-2.29V9.131c0-1.293-.997-2.29-2.29-2.29zm-6.856 5.561c2.032 0 3.678 1.595 3.678 3.564 0 1.967-1.646 3.564-3.678 3.564-2.03 0-3.677-1.597-3.677-3.564.001-1.969 1.648-3.564 3.677-3.564zm6.856 9.895c0 .401-.172.572-.572.572H9.703c-.4 0-.572-.171-.572-.572v-8.014l1.427.31a5.339 5.339 0 0 0-.236 1.571c0 3.044 2.55 5.515 5.692 5.515 3.144 0 5.692-2.47 5.692-5.515 0-.547-.083-1.073-.236-1.571l1.4-.31v8.014zm0-10.304a.571.571 0 0 1-.572.572h-2.29a.571.571 0 0 1-.572-.572v-2.29c0-.317.256-.572.572-.572h2.29c.317 0 .572.256.572.572v2.29z"/></g><metadata><rdf:RDF xmlns:rdf="http://www.w3.org/1999/02/22-rdf-syntax-ns#" xmlns:rdfs="http://www.w3.org/2000/01/rdf-schema#" xmlns:dc="http://purl.org/dc/elements/1.1/"><rdf:Description about="https://iconscout.com/legal#licenses" dc:title="instagram,social,media,online" dc:description="instagram,social,media,online" dc:publisher="Iconscout" dc:date="2017-09-15" dc:format="image/svg+xml" dc:language="en"><dc:creator><rdf:Bag><rdf:li>Epicflaticon by Alfredo</rdf:li></rdf:Bag></dc:creator></rdf:Description></rdf:RDF></metadata></svg>