<?xml version="1.0" encoding="UTF-8"?><svg xmlns="http://www.w3.org/2000/svg" xmlns:xlink="http://www.w3.org/1999/xlink" version="1.1" x="0px" y="0px" viewBox="0 0 32 32" xml:space="preserve"><g id="Outline_Color_copy_2"><path d="M28 1c1.654 0 3 1.346 3 3v24c0 1.654-1.346 3-3 3H4c-1.654 0-3-1.346-3-3V4c0-1.654 1.346-3 3-3h24m0-1H4C1.8 0 0 1.8 0 4v24c0 2.2 1.8 4 4 4h24c2.2 0 4-1.8 4-4V4c0-2.2-1.8-4-4-4z"/><path d="M18.328 8.56c-1.663.605-2.714 2.166-2.594 3.874l.04.659-.665-.081c-2.421-.309-4.537-1.358-6.333-3.121l-.879-.874-.226.646c-.479 1.439-.173 2.96.825 3.982.532.565.412.646-.505.309-.319-.107-.599-.188-.625-.148-.093.095.226 1.318.479 1.803.346.673 1.051 1.331 1.823 1.722l.652.309-.771.013c-.745 0-.771.013-.691.297.266.874 1.317 1.803 2.488 2.206l.825.282-.718.431a7.457 7.457 0 0 1-3.566.995c-.599.013-1.091.067-1.091.108 0 .134 1.624.887 2.568 1.184 2.834.874 6.2.497 8.728-.996 1.796-1.063 3.592-3.175 4.431-5.22.453-1.089.905-3.08.905-4.034 0-.619.04-.7.785-1.439.439-.43.851-.901.931-1.036.133-.256.119-.256-.559-.027-1.131.404-1.291.35-.731-.255.412-.43.905-1.211.905-1.439 0-.04-.199.027-.426.148-.239.135-.771.337-1.171.457l-.722.228-.652-.444c-.359-.242-.864-.511-1.131-.592-.679-.189-1.717-.162-2.329.053z"/></g><metadata><rdf:RDF xmlns:rdf="http://www.w3.org/1999/02/22-rdf-syntax-ns#" xmlns:rdfs="http://www.w3.org/2000/01/rdf-schema#" xmlns:dc="http://purl.org/dc/elements/1.1/"><rdf:Description about="https://iconscout.com/legal#licenses" dc:title="twitter,social,media,online" dc:description="twitter,social,media,online" dc:publisher="Iconscout" dc:date="2017-09-15" dc:format="image/svg+xml" dc:language="en"><dc:creator><rdf:Bag><rdf:li>Epicflaticon by Alfredo</rdf:li></rdf:Bag></dc:creator></rdf:Description></rdf:RDF></metadata></svg>