<?xml version="1.0" encoding="UTF-8"?><svg xmlns="http://www.w3.org/2000/svg" xmlns:xlink="http://www.w3.org/1999/xlink" version="1.1" x="0px" y="0px" viewBox="0 0 32 32" xml:space="preserve"><g id="style_1_copy_6"><path d="M24.688 30H0L7 2h25z"/><g fill="#FFF"><path d="M19.999 19.585c-.146 0-.25.041-.314.128-.063.082-.094.222-.094.417v.47h.809v-.47c0-.195-.033-.335-.097-.417-.062-.087-.165-.128-.304-.128z"/><path d="M16.845 19.568a.437.437 0 0 0-.194.045.688.688 0 0 0-.189.142v2.899a.794.794 0 0 0 .217.164.51.51 0 0 0 .221.05c.112 0 .194-.032.246-.099.052-.065.08-.17.08-.32v-2.402c0-.157-.033-.277-.097-.357-.066-.082-.161-.122-.284-.122z"/><path d="M21.928 15.962c-.752-.75-7.082-.76-7.082-.76s-6.33.01-7.083.76c-.753.752-.755 4.462-.755 4.483 0 .028.002 3.732.755 4.484.753.75 7.083.766 7.083.766s6.331-.016 7.082-.766c.756-.754.763-4.484.763-4.484-.001-.021-.009-3.731-.763-4.483zm-10.093 2.187h-1.066v5.39H9.738v-5.39H8.672v-.916h3.163v.916zm3.014 5.389h-.913v-.511c-.17.189-.345.333-.529.431-.183.1-.36.148-.531.148-.212 0-.369-.068-.478-.208-.105-.139-.16-.345-.16-.623v-3.89h.914v3.568c0 .111.019.19.056.24.04.05.103.074.188.074a.504.504 0 0 0 .256-.099 1.27 1.27 0 0 0 .284-.249v-3.534h.914v4.653zm3.319-.961c0 .329-.072.581-.215.757-.142.176-.351.263-.622.263a1.06 1.06 0 0 1-.478-.101 1.172 1.172 0 0 1-.391-.315v.357h-.924v-6.306h.924v2.031c.124-.142.254-.251.392-.323a.893.893 0 0 1 .422-.111c.29 0 .511.099.663.296.154.199.229.489.229.87v2.582zm3.172-1.252h-1.749v.875c0 .245.03.415.089.51.062.095.164.141.31.141.151 0 .257-.04.318-.12.06-.08.092-.256.092-.531v-.212h.941v.239c0 .477-.114.836-.344 1.079-.228.241-.571.36-1.026.36-.409 0-.733-.127-.968-.383-.235-.255-.354-.606-.354-1.055v-2.089c0-.402.131-.733.389-.986.258-.254.591-.381 1.001-.381.419 0 .741.118.966.353.225.235.336.573.336 1.014v1.186z"/><path d="M19.995 13.251h-1.03v-.566a2.168 2.168 0 0 1-.592.476 1.27 1.27 0 0 1-.597.164c-.24 0-.418-.077-.538-.229-.12-.153-.181-.381-.181-.687V8.126h1.028v3.929c0 .121.024.209.067.263.042.055.113.082.209.082a.588.588 0 0 0 .287-.108c.115-.072.222-.164.317-.276v-3.89h1.03v5.125z"/><path d="M15.814 8.369c-.273-.248-.623-.373-1.049-.373-.467 0-.841.118-1.117.353-.278.235-.417.551-.416.949v2.656c0 .436.136.782.405 1.04.271.257.632.386 1.082.386.469 0 .835-.125 1.104-.374.266-.25.399-.593.399-1.031V9.327a1.249 1.249 0 0 0-.408-.958zm-.642 3.683a.432.432 0 0 1-.123.324.464.464 0 0 1-.332.117c-.137 0-.242-.038-.314-.115a.458.458 0 0 1-.111-.326V9.26c0-.112.04-.203.118-.272a.449.449 0 0 1 .307-.103c.135 0 .245.034.329.103.084.069.126.16.126.272v2.792z"/><path d="M10.427 6.305H9.258l1.381 4.194v2.752h1.16v-2.882l1.349-4.064h-1.18l-.716 2.776h-.072z"/></g></g><metadata><rdf:RDF xmlns:rdf="http://www.w3.org/1999/02/22-rdf-syntax-ns#" xmlns:rdfs="http://www.w3.org/2000/01/rdf-schema#" xmlns:dc="http://purl.org/dc/elements/1.1/"><rdf:Description about="https://iconscout.com/legal#licenses" dc:title="social,media,online,youtube" dc:description="social,media,online,youtube" dc:publisher="Iconscout" dc:date="2017-09-15" dc:format="image/svg+xml" dc:language="en"><dc:creator><rdf:Bag><rdf:li>Epicflaticon by Alfredo</rdf:li></rdf:Bag></dc:creator></rdf:Description></rdf:RDF></metadata></svg>